<svg width="334" height="194" viewBox="0 0 334 194" fill="none" xmlns="http://www.w3.org/2000/svg">
<g clip-path="url(#clip0_205_1614)">
<path d="M50.043 174.931H50.031C37.343 174.925 26.419 164.579 27.061 151.322C27.914 133.694 43.51 131.165 48.863 123.283C48.9874 123.085 49.16 122.921 49.3648 122.807C49.5696 122.694 49.7999 122.634 50.034 122.634C50.526 122.634 50.957 122.893 51.204 123.279H51.21C56.56 131.165 72.163 133.693 73.015 151.322C73.655 164.579 62.733 174.925 50.045 174.931H50.043ZM93.072 150.662C93.072 126.895 73.805 107.627 50.037 107.627C26.269 107.627 7.00201 126.895 7.00201 150.662C7.00201 174.43 26.269 193.697 50.037 193.697C73.805 193.697 93.072 174.43 93.072 150.662Z" fill="#005FB6"/>
<path d="M50.028 96.46C50.766 96.46 51.437 96.048 51.777 95.387C54.264 90.987 60.424 87.001 66.947 82.78C70.347 80.582 73.767 78.183 76.987 75.877C90.746 66.025 99.573 50.602 99.573 33.2C99.573 32.648 99.563 32.096 99.545 31.547L99.526 30.927L98.909 30.996C88.166 32.197 78.156 36.632 69.87 43.843C69.912 42.991 69.93 42.152 69.93 41.333C69.93 25.165 62.822 10.263 50.428 0.449012L50.028 0.131012L49.628 0.449012C37.233 10.263 30.125 25.164 30.125 41.332C30.125 42.151 30.145 42.989 30.186 43.842C21.9 36.63 11.889 32.196 1.146 30.995L0.529002 30.925L0.510002 31.545C0.493002 32.096 0.483002 32.648 0.483002 33.2C0.483002 50.603 9.311 66.025 23.07 75.878C26.289 78.184 29.71 80.583 33.11 82.781C39.633 87.002 45.793 90.988 48.28 95.388C48.4443 95.7107 48.6946 95.9817 49.0032 96.1711C49.3119 96.3604 49.6669 96.4608 50.029 96.461L50.028 96.46Z" fill="#52AE32"/>
<path d="M263.179 40.18L258.97 36.38L268.904 25.648L275.332 31.335L263.179 40.18ZM125.587 86.48H113.836L130.22 43.882H142.311L158.356 86.479H146.547L143.779 79.078H128.526L125.587 86.479V86.48ZM131.576 70.603H140.786L136.264 57.045H136.152L131.576 70.603ZM178.412 87.609C181.011 87.609 182.479 87.382 188.186 85.631V72.355C185.756 75.237 182.198 76.875 178.638 76.875C171.971 76.875 167.114 72.242 167.114 65.293C167.114 58.456 171.915 53.486 178.468 53.486C182.31 53.486 185.982 55.181 188.186 58.174V44.898C184.852 43.542 181.632 42.751 178.074 42.751C166.548 42.751 155.588 51.961 155.588 65.237C155.588 69.474 156.548 73.202 158.356 76.366C162.311 83.146 170.334 87.609 178.412 87.609ZM213.44 87.609C216.039 87.609 217.508 87.382 223.215 85.631V72.355C220.784 75.237 217.226 76.875 213.666 76.875C207 76.875 202.142 72.242 202.142 65.293C202.142 58.456 206.943 53.486 213.496 53.486C217.338 53.486 221.011 55.181 223.215 58.174V44.898C219.882 43.542 216.66 42.751 213.102 42.751C201.578 42.751 190.616 51.961 190.616 65.237C190.616 69.474 191.578 73.202 193.384 76.366C197.34 83.146 205.362 87.609 213.44 87.609ZM238.072 43.881H226.999V86.478H238.072V43.881ZM240.898 64.898C240.898 53.713 248.016 48.458 250.276 46.875C255.472 43.261 260.727 42.47 264.456 42.47C276.546 42.47 288.014 51.34 288.014 64.39C288.014 79.303 276.772 87.891 264.795 87.891C249.372 87.891 240.898 76.535 240.898 64.898ZM252.422 64.446C252.422 71.734 257.79 77.158 264.456 77.158C271.236 77.158 276.49 71.564 276.49 64.446C276.49 58.456 270.896 53.203 264.4 53.203C258.186 53.203 252.422 58.344 252.422 64.446ZM322.366 43.882V69.926H322.252L301.971 43.882H290.898V86.479H301.971V60.378H302.084L322.366 86.479H333.439V43.882H322.366ZM129.73 127.3C131.62 127.3 132.69 127.134 136.843 125.86V116.197C135.075 118.294 132.484 119.486 129.892 119.486C125.042 119.486 121.504 116.114 121.504 111.057C121.504 106.081 124.999 102.462 129.77 102.462C132.566 102.462 135.239 103.696 136.843 105.876V96.212C134.416 95.225 132.072 94.649 129.483 94.649C121.092 94.649 113.116 101.352 113.116 111.016C113.116 114.1 113.815 116.813 115.131 119.117C118.008 124.052 123.848 127.3 129.73 127.3ZM155.927 94.444C164.727 94.444 173.075 100.9 173.075 110.398C173.075 121.254 164.891 127.505 156.174 127.505C144.948 127.505 138.78 119.24 138.78 110.769C138.78 102.626 143.962 98.802 145.607 97.652C149.388 95.019 153.214 94.444 155.927 94.444ZM155.886 102.257C151.363 102.257 147.168 105.998 147.168 110.44C147.168 115.744 151.075 119.692 155.927 119.692C160.862 119.692 164.686 115.621 164.686 110.44C164.686 106.081 160.615 102.257 155.886 102.257ZM198.494 114.428L183.731 95.471H175.671V126.477H183.731V107.478H183.814L198.576 126.477H206.635V95.473H198.576V114.429L198.494 114.428ZM223.626 126.477V102.297H230.287V95.471H208.903V102.297H215.566V126.477H223.626ZM278.076 126.477L276.062 121.09H264.959L262.82 126.477H248.136L240.528 114.552H240.447V126.477H232.388V95.473H244.559C250.768 95.473 255.21 98.598 255.21 105.013C255.21 109.495 252.619 113.031 248.424 113.771L255.571 123.089L266.192 95.472H274.992L286.671 126.478L278.076 126.477ZM246.822 105.505C246.822 102.873 245.135 101.64 241.146 101.64H240.447V109.37H241.146C245.094 109.37 246.822 108.137 246.822 105.505ZM273.883 114.922L270.594 105.053H270.511L267.18 114.922H273.883ZM312.502 102.297V95.471H294.859V126.477H312.502V119.652H302.919V114.305H312.007V107.478H302.919V102.297H312.502ZM323.648 95.471H315.588V126.477H333.312V119.65H323.648V95.473V95.471ZM140.051 150.742H125.272V135.545H115.035V174.921H125.272V158.785H140.051V174.921H150.287V135.545H140.051V150.742ZM234.483 135.51L240.447 174.958H230.192L227.315 152.251H227.211L217.742 174.958H213.66L204.608 152.251H204.504L201.208 174.958H182.423L179.859 168.105H165.732L163.012 174.958H152.128L167.302 135.51H178.499L191.736 170.657L197.703 135.51H207.8L215.806 156.594L224.28 135.51H234.483ZM177.086 160.257L172.899 147.701H172.795L168.558 160.257H177.086ZM273.212 163.971C273.212 171.086 267.718 174.958 259.086 174.958H243.128V135.51H257.935C265.468 135.51 269.498 138.858 269.498 145.765C269.498 149.741 268.032 152.357 265.155 153.822V153.926C270.544 154.606 273.212 158.163 273.212 163.971ZM253.383 150.995H254.482C258.563 150.995 260.079 149.741 260.079 147.177C260.079 144.613 258.667 143.358 254.378 143.358H253.383V150.995ZM262.852 162.925C262.852 158.634 258.563 158.634 256.366 158.634H253.383V167.111H254.691C258.458 167.111 262.852 167.006 262.852 162.925ZM296.53 158.791L308.93 174.958H296.163L286.484 159.786H286.379V174.958H276.126V135.51H291.611C299.512 135.51 305.162 139.486 305.162 147.647C305.162 153.35 301.866 157.85 296.53 158.791ZM294.488 148.275C294.488 144.927 292.343 143.358 287.268 143.358H286.379V153.194H287.268C292.291 153.194 294.488 151.623 294.488 148.275ZM310.867 174.958H333.312V166.274H321.122V159.471H332.684V150.787H321.122V144.194H333.312V135.51H310.867V174.958Z" fill="#707070"/>
</g>
<defs>
<clipPath id="clip0_205_1614">
<rect width="333" height="194" fill="white" transform="translate(0.483002)"/>
</clipPath>
</defs>
</svg>