<svg version="1.1" id="Layer_1" xmlns:x="ns_extend;" xmlns:i="ns_ai;" xmlns:graph="ns_graphs;" xmlns="http://www.w3.org/2000/svg" xmlns:xlink="http://www.w3.org/1999/xlink" x="0px" y="0px" viewBox="0 0 211.3 40" style="enable-background:new 0 0 211.3 40;" xml:space="preserve">
 <style type="text/css">
  .st0{fill:#00309C;}
 </style>
 <metadata>
  <sfw xmlns="ns_sfw;">
   <slices>
   </slices>
   <sliceSourceBounds bottomLeftOrigin="true" height="40" width="211.3" x="-55.1" y="-204.2">
   </sliceSourceBounds>
  </sfw>
 </metadata>
 <g>
  <path class="st0" d="M179.6,29.4c-1.8-0.5-2.2-1.3-2.4-3.1c-0.5-4.3-0.5-8.7,0-13c0.1-1.4,1.1-2.5,2.4-2.9c5.7-0.5,11.5-0.5,17.2,0
		c1.2,0.4,1.9,1.4,2,2.6c0.6,4.3,0.6,8.7,0,13c-0.1,1.2-0.9,2.2-2,2.6C195.5,29.8,181.6,29.8,179.6,29.4L179.6,29.4z M201.4,0.8
		c-8.9-1-17.8-1-26.6,0c-4.7,0.8-8.5,4.2-9.7,8.8c-0.9,6.9-0.9,14,0,20.9c1.1,4.6,4.9,8.2,9.7,8.8c8.9,1,18,0.9,26.9-0.2
		c4.4-0.8,8-4.2,9-8.6c0.9-6.9,0.9-14,0-20.9C209.5,5.1,205.9,1.7,201.4,0.8L201.4,0.8z M146.2,1h12.1V39h-12.1V1z M126.8,24.5
		c1.5,0.3,2.6,1.7,2.4,3.3c0,1.3-0.2,2.9-2.4,3.1c-4.5,0.4-9.1,0.4-13.6,0c-1.3-0.2-2.9-0.2-3.3-2.6v-0.7H97.7
		c0,0.6,0.1,1.2,0.2,1.8c-0.2,4.9,3.3,9.1,8.1,9.7c9.1,1,18.2,1,27.3,0c6.2-1.3,7.7-6.8,7.7-11.7c0-5.5-2-9.2-6.8-10.8
		c-1.9-0.4-3.8-0.7-5.7-0.7c-1.1,0-14.1-0.4-16.9-0.9c-1.8-0.2-2.2-1.3-2.2-2.9c0-1.5,0.2-2.6,2.4-3.1c4.7-0.4,9.4-0.4,14.1,0
		c1.1,0.3,1.8,1.3,1.8,2.4v0.9h12.1c0-0.9-0.2-1.5-0.2-2.2c-0.1-5.4-4.5-9.7-9.9-9.7c-7.9-0.6-15.9-0.5-23.8,0.2
		c-4,0.9-7.9,3.3-7.9,11.5c-0.7,5.3,3,10.2,8.4,11c1.5,0.2,5.9,0.4,6.6,0.4C114.5,23.9,125.9,24.3,126.8,24.5L126.8,24.5z M79,24.3
		H65.6l5.7-15.2h2L79,24.3z M81.7,32.2l2.6,6.8h13L81,0.8H63.4L47.3,39h13l2.6-7L81.7,32.2z M12.6,26.5c0.2,2.2,1.3,2.6,2.4,2.9
		c5.5,0.4,11,0.4,16.5,0c1.4-0.2,2.6-1.2,2.9-2.6c0-0.7,0.2-1.8,0.2-2.2h12.6c0,1.7-0.1,3.4-0.2,5.1c-0.5,4.9-4.2,8.9-9,9.7
		c-9.2,0.9-18.4,0.9-27.5,0c-4.7-0.8-8.5-4.2-9.7-8.8c-0.9-6.9-0.9-13.8,0-20.7c1.1-4.5,4.8-8,9.5-8.8c9.2-1,18.5-1,27.8,0
		c4.5,1.1,7.8,4.7,8.6,9.2c0.2,1.5,0.2,3.1,0.2,4.6H34.1c0-0.9,0.2-3.3-2-4c-5.6-0.4-11.2-0.5-16.7-0.2c-1.4,0-2.5,1.1-2.6,2.4
		C12.1,17.5,12.1,22,12.6,26.5L12.6,26.5z M12.6,26.5">
  </path>
 </g>
</svg>