<svg width="857" height="843" viewBox="0 0 857 843" fill="none" xmlns="http://www.w3.org/2000/svg">
<g id="Mission">
<path id="Vector" d="M77.93 346.32C77.93 175.71 178.93 33.39 313.17 0.580017C305.07 0.640017 296.92 0.700012 288.76 0.700012C129.28 0.700012 0 155.7 0 346.86C0 538.02 129.28 693.02 288.76 693.02C298.82 693.02 308.66 693.13 318.27 693.23C181.55 662.8 77.93 519.07 77.93 346.32Z" fill="url(#paint0_linear_8_37)"/>
<path id="Vector_2" d="M379.58 693.02C539.063 693.02 668.35 538.039 668.35 346.86C668.35 155.681 539.063 0.699951 379.58 0.699951C220.097 0.699951 90.81 155.681 90.81 346.86C90.81 538.039 220.097 693.02 379.58 693.02Z" fill="#572674"/>
<path id="Vector_3" d="M379.58 529.97C463.941 529.97 532.33 447.989 532.33 346.86C532.33 245.731 463.941 163.75 379.58 163.75C295.219 163.75 226.83 245.731 226.83 346.86C226.83 447.989 295.219 529.97 379.58 529.97Z" fill="#EFEDED"/>
<path id="Vector_4" d="M379.58 479.3C440.596 479.3 490.06 420.005 490.06 346.86C490.06 273.715 440.596 214.42 379.58 214.42C318.564 214.42 269.1 273.715 269.1 346.86C269.1 420.005 318.564 479.3 379.58 479.3Z" fill="#572674"/>
<path id="Vector_5" d="M379.58 425.62C415.865 425.62 445.28 390.358 445.28 346.86C445.28 303.362 415.865 268.1 379.58 268.1C343.295 268.1 313.88 303.362 313.88 346.86C313.88 390.358 343.295 425.62 379.58 425.62Z" fill="#EFEDED"/>
<path id="Vector_6" d="M379.58 393.74C401.152 393.74 418.64 372.773 418.64 346.91C418.64 321.046 401.152 300.08 379.58 300.08C358.008 300.08 340.52 321.046 340.52 346.91C340.52 372.773 358.008 393.74 379.58 393.74Z" fill="#572674"/>
<path id="Vector_7" d="M379.55 53.88C244.55 53.88 135.14 185.05 135.14 346.88C135.14 508.71 244.6 639.8 379.55 639.8C514.5 639.8 623.95 508.63 623.95 346.8C623.95 184.97 514.55 53.88 379.55 53.88ZM379.55 584.15C270.25 584.15 181.63 477.91 181.63 346.86C181.63 215.81 270.25 109.56 379.63 109.56C489.01 109.56 577.55 215.8 577.55 346.86C577.55 477.92 488.9 584.15 379.55 584.15Z" fill="#EFEDED"/>
<path id="Vector_8" d="M760.85 94.7299L627.13 177.95L627.5 96.67L761.22 13.45L760.85 94.7299Z" fill="#3D55A2"/>
<path id="Vector_9" d="M783.41 125.328L765.966 97.3037L371.746 342.684L389.19 370.709L783.41 125.328Z" fill="#D5DE6D"/>
<path id="Vector_10" d="M723.1 249.18L856.82 165.96L783.73 130.39L650 213.62L723.1 249.18Z" fill="#3D55A2"/>
<path id="Vector_11" opacity="0.55" d="M361.53 842.37C561.198 842.37 723.06 827.631 723.06 809.45C723.06 791.269 561.198 776.53 361.53 776.53C161.862 776.53 0 791.269 0 809.45C0 827.631 161.862 842.37 361.53 842.37Z" fill="url(#paint1_radial_8_37)"/>
</g>
<defs>
<linearGradient id="paint0_linear_8_37" x1="0" y1="346.91" x2="318.27" y2="346.91" gradientUnits="userSpaceOnUse">
<stop stop-color="#29154B"/>
<stop offset="0.36" stop-color="#422A6B"/>
<stop offset="0.77" stop-color="#5A3E8A"/>
<stop offset="1" stop-color="#634595"/>
</linearGradient>
<radialGradient id="paint1_radial_8_37" cx="0" cy="0" r="1" gradientUnits="userSpaceOnUse" gradientTransform="translate(360.211 808.87) scale(334.042 28.7067)">
<stop stop-color="#10131C"/>
<stop offset="0.38" stop-color="#12141C" stop-opacity="0.86"/>
<stop offset="0.75" stop-color="#17191B" stop-opacity="0.44"/>
<stop offset="1" stop-color="#1D1D1B" stop-opacity="0"/>
</radialGradient>
</defs>
</svg>
