<svg width="564" height="954" viewBox="0 0 564 954" fill="none" xmlns="http://www.w3.org/2000/svg">
<g id="EntrecompMedal 1" clip-path="url(#clip0_1_2)">
<path id="Board" d="M281.84 13.25L45.78 123.88V357.42V396.46V698.15L281.84 808.78L517.9 698.15V396.46V357.42V123.88L281.84 13.25Z" fill="#1D1D1B" stroke="#6D57A1" stroke-width="24" stroke-miterlimit="10"/>
<path id="Background" d="M281.84 13.25L45.78 123.88V357.42V396.46V698.15L281.84 808.78L517.9 698.15V396.46V357.42V123.88L281.84 13.25Z" fill="url(#paint0_linear_1_2)"/>
<g id="OrangeComp">
<path id="Vector" d="M176.94 702.73C258.31 720.88 356.12 714.99 421.11 690.91L433.11 686.57C433.11 686.57 458.43 675.03 440.68 661.57C422.93 648.11 384.56 648.5 384.56 648.5L345.83 659.41C313.95 670.41 267.52 672.89 228.71 664.23C206.13 659.23 189.97 651.23 181.49 642.15C182.32 646.38 180.22 650.75 174.83 654.74C160.36 665.47 127.08 669.52 100.54 663.74C90.81 661.63 83.26 658.52 78.26 654.88C94.73 674.61 128.62 691.95 176.94 702.73Z" fill="#EB792F"/>
<path id="Vector_2" d="M391.16 688.85C413.417 688.85 431.46 681.503 431.46 672.44C431.46 663.377 413.417 656.03 391.16 656.03C368.903 656.03 350.86 663.377 350.86 672.44C350.86 681.503 368.903 688.85 391.16 688.85Z" fill="#B96123"/>
</g>
<g id="BlueComp">
<path id="Vector_3" d="M500.73 622.74C500.73 584.95 441.05 552.84 357.99 541.18L342.88 538.98C342.88 538.98 305.88 535.48 285.42 548.29C264.96 561.1 289.42 574.9 289.42 574.9L326.42 583.21C365.42 589.32 393.05 604.71 393.05 622.74C393.05 633.23 383.69 642.82 368.19 650.22C378.071 647.707 388.234 646.474 398.43 646.55C428.93 646.55 453.66 656.62 453.66 669.05C453.66 673.42 450.59 677.51 445.28 680.96C479.69 665.62 500.73 645.18 500.73 622.74Z" fill="#58969E"/>
<path id="Vector_4" d="M335.9 576.58C358.157 576.58 376.2 569.233 376.2 560.17C376.2 551.107 358.157 543.76 335.9 543.76C313.643 543.76 295.6 551.107 295.6 560.17C295.6 569.233 313.643 576.58 335.9 576.58Z" fill="#487A80"/>
</g>
<g id="GreenComp">
<path id="Vector_5" d="M169.7 547.06C89.83 566.29 52.34 603.56 69.98 638.62L72.98 645.04C72.98 645.04 84.41 659.8 121.88 660.45C159.35 661.1 178.11 647.45 178.11 647.45L174.87 628.31C167.94 611.54 186.4 594 224.49 584.83C246.65 579.49 271.69 577.89 295.2 579.57C285.86 577.7 277.7 574.73 272.02 570.8C256.77 560.25 265.2 546.53 290.87 540.17C300.721 537.827 310.826 536.725 320.95 536.89C271.02 532.6 217.12 535.62 169.7 547.06Z" fill="#81BE63"/>
<path id="Vector_6" d="M124.2 653.11C146.457 653.11 164.5 645.763 164.5 636.7C164.5 627.637 146.457 620.29 124.2 620.29C101.943 620.29 83.9 627.637 83.9 636.7C83.9 645.763 101.943 653.11 124.2 653.11Z" fill="#63924C"/>
</g>
<path id="Vector_7" d="M282.18 653.35C327.02 653.35 363.37 638.544 363.37 620.28C363.37 602.016 327.02 587.21 282.18 587.21C237.34 587.21 200.99 602.016 200.99 620.28C200.99 638.544 237.34 653.35 282.18 653.35Z" fill="#6D58A1"/>
<path id="Vector_8" d="M281.84 641.3C311.697 641.3 335.9 631.441 335.9 619.28C335.9 607.119 311.697 597.26 281.84 597.26C251.983 597.26 227.78 607.119 227.78 619.28C227.78 631.441 251.983 641.3 281.84 641.3Z" fill="#3C2A7A"/>
<path id="Vector_9" opacity="0.55" d="M281.84 953.07C437.496 953.07 563.68 938.331 563.68 920.15C563.68 901.969 437.496 887.23 281.84 887.23C126.184 887.23 0 901.969 0 920.15C0 938.331 126.184 953.07 281.84 953.07Z" fill="url(#paint1_radial_1_2)"/>
<g id="GreenTail">
<path id="Vector_10" d="M197.8 288.92C223.172 288.92 243.74 268.352 243.74 242.98C243.74 217.608 223.172 197.04 197.8 197.04C172.428 197.04 151.86 217.608 151.86 242.98C151.86 268.352 172.428 288.92 197.8 288.92Z" fill="#81BE63"/>
<path id="Vector_11" d="M252.2 631.69V451.38L200.99 411.55V283.89" stroke="#81BE63" stroke-width="24" stroke-miterlimit="10"/>
<path id="Vector_12" d="M197.8 271.78C213.706 271.78 226.6 258.886 226.6 242.98C226.6 227.074 213.706 214.18 197.8 214.18C181.894 214.18 169 227.074 169 242.98C169 258.886 181.894 271.78 197.8 271.78Z" fill="#63924C"/>
</g>
<g id="OrangeTail">
<path id="Vector_13" d="M281.84 205.94C307.212 205.94 327.78 185.372 327.78 160C327.78 134.628 307.212 114.06 281.84 114.06C256.468 114.06 235.9 134.628 235.9 160C235.9 185.372 256.468 205.94 281.84 205.94Z" fill="#EB792F"/>
<path id="Vector_14" d="M281.84 619.28V197.04" stroke="#EB792F" stroke-width="24" stroke-miterlimit="10"/>
<path id="Vector_15" d="M281.84 188.8C297.746 188.8 310.64 175.906 310.64 160C310.64 144.094 297.746 131.2 281.84 131.2C265.934 131.2 253.04 144.094 253.04 160C253.04 175.906 265.934 188.8 281.84 188.8Z" fill="#B96123"/>
</g>
<g id="BlueTail">
<path id="Vector_16" d="M362.9 347.13C388.272 347.13 408.84 326.562 408.84 301.19C408.84 275.818 388.272 255.25 362.9 255.25C337.528 255.25 316.96 275.818 316.96 301.19C316.96 326.562 337.528 347.13 362.9 347.13Z" fill="#58969E"/>
<path id="Vector_17" d="M311.69 631.84V451.53L362.9 411.7V328.06" stroke="#58969E" stroke-width="24" stroke-miterlimit="10"/>
<path id="Vector_18" d="M362.9 329.99C378.806 329.99 391.7 317.096 391.7 301.19C391.7 285.284 378.806 272.39 362.9 272.39C346.994 272.39 334.1 285.284 334.1 301.19C334.1 317.096 346.994 329.99 362.9 329.99Z" fill="#487A80"/>
</g>
</g>
<defs>
<linearGradient id="paint0_linear_1_2" x1="284.94" y1="69.38" x2="278.81" y2="746.48" gradientUnits="userSpaceOnUse">
<stop stop-color="#29154B"/>
<stop offset="0.36" stop-color="#422A6B"/>
<stop offset="0.77" stop-color="#5A3E8A"/>
<stop offset="1" stop-color="#634595"/>
</linearGradient>
<radialGradient id="paint1_radial_1_2" cx="0" cy="0" r="1" gradientUnits="userSpaceOnUse" gradientTransform="translate(281.85 924.52) scale(260.97 28.7067)">
<stop stop-color="#10131C"/>
<stop offset="0.38" stop-color="#12141C" stop-opacity="0.86"/>
<stop offset="0.75" stop-color="#17191B" stop-opacity="0.44"/>
<stop offset="1" stop-color="#1D1D1B" stop-opacity="0"/>
</radialGradient>
<clipPath id="clip0_1_2">
<rect width="563.69" height="953.07" fill="white"/>
</clipPath>
</defs>
</svg>
