<svg width="564" height="954" viewBox="0 0 564 954" fill="none" xmlns="http://www.w3.org/2000/svg">
<g id="GuideMedal" clip-path="url(#clip0_5_121)">
<path id="Vector" opacity="0.55" d="M281.84 953.07C437.496 953.07 563.68 938.331 563.68 920.15C563.68 901.969 437.496 887.23 281.84 887.23C126.184 887.23 0 901.969 0 920.15C0 938.331 126.184 953.07 281.84 953.07Z" fill="url(#paint0_radial_5_121)"/>
<path id="Vector_2" d="M281.84 822.02L33.78 705.77V116.25L281.84 0L529.9 116.25V705.77L281.84 822.02ZM57.78 690.53L281.84 795.53L505.9 690.53V131.53L281.84 26.53L57.78 131.53V690.53Z" fill="#39AC56"/>
<path id="Vector_3" d="M281.84 13.25L45.78 123.88V357.42V396.46V698.15L281.84 808.78L517.9 698.15V396.46V357.42V123.88L281.84 13.25Z" fill="url(#paint1_linear_5_121)"/>
<path id="Vector_4" d="M47.84 382.53C47.2137 382.247 46.5248 382.13 45.84 382.19V385.12C46.6906 384.416 47.3738 383.531 47.84 382.53Z" fill="#3A732F"/>
<path id="Vector_5" d="M517.9 337.16C517.637 337.18 517.373 337.18 517.11 337.16C515.72 337.09 513.76 337.68 513.49 335.61C513.31 334.26 513.61 332.84 515.86 332.73C517.94 332.63 517.35 330.48 517.86 329.35C516.28 328.35 514.72 330.79 513.38 328.35C513.865 328.028 514.399 327.785 514.96 327.63C515.33 327.622 515.695 327.534 516.028 327.374C516.362 327.213 516.658 326.983 516.895 326.699C517.133 326.415 517.307 326.083 517.406 325.727C517.505 325.37 517.527 324.996 517.47 324.63C517.31 322.82 515.76 323.98 514.82 323.92C513.24 323.84 512.42 322.92 513.34 321.7C516.5 317.52 510.86 316.27 511.19 313.06C509.24 315.48 512.62 320.43 505.67 319.7C508.43 321 509.02 321.95 509.06 324.41C509.06 326.25 511.71 328.41 507.93 329.89C506.54 330.43 503.28 332.77 507.2 335.06C507.34 337.2 506.2 336.42 505.2 335.95C501.77 339.21 506.35 340.06 507.2 341.95C507.41 342.43 509.65 341.85 509.41 343.62C509.17 345.39 507.41 345.1 506.22 345.14C504.16 345.2 502.06 344.95 499.67 346.84C503.61 347.47 505.99 350.38 509.23 350.59C507.59 358.01 501.45 353.17 497.1 354.2C500 358.2 504.21 359.03 508.39 361.09C504.62 362.54 501.76 364.23 498.31 363.92C496.64 363.77 495.47 364.32 495.16 366.07C492.87 366.34 490.53 366.62 488.42 365.51C487.52 365.03 486.42 364.42 486.63 362.86C486.84 361.3 487.81 361.28 488.94 361.04C491.12 360.57 493.23 359.9 494.56 356.72C491.27 357.9 488.56 358.66 486.08 356.12C487.72 353.77 491.65 353.74 492.08 350.17C489.9 349.82 487.34 352.32 485.08 349.02C486.013 349.092 486.946 348.881 487.757 348.416C488.569 347.95 489.221 347.252 489.63 346.41C487.96 345.32 484.5 344.25 485.45 342.56C488.34 337.46 481.96 335.22 483.04 330.95C480.04 335.84 481.75 341.71 479.04 347C479.42 347.87 483.22 347.62 481.04 350.65C479.84 352.34 477.28 351.1 475.45 353.33C478.78 353.5 479.8 356.33 483.56 356.46C480.96 358.2 479.31 358.98 477.49 358.6C475.27 358.14 473.78 358.6 472.75 360.97C475.41 362.09 477.2 364.49 480.31 363.97C479.95 366.27 477.89 365.61 477.21 366.57C475.66 368.74 470.91 367.72 471.39 370.35C472.02 373.82 476.23 372.96 479.1 373.44C479.67 373.66 480.28 373.26 480.85 373.54C480.33 374.06 479.65 374.4 479.3 375.09C476.24 379.09 471.3 377.7 467.4 379.17C466.4 376.82 465.53 374.27 462.4 377.36C459.72 379.99 456.57 378.91 454.14 377.36C452.7 376.44 451.72 373.9 451.61 372.03C451.48 369.98 453.93 370.22 455.38 370.03C458.38 369.71 460.78 368.17 463.88 366.23C460.51 365.38 457.46 366.93 455.27 364.6C453.27 362.97 452.68 361.3 455.13 359.54C454.72 354.76 460.7 354.95 461.87 350.97H455.27C453.79 350.97 451.71 351.27 451.36 349.66C451.01 348.05 453 347.35 454.43 347.1C456.8 346.69 457.93 345.05 459.17 343.38C456.37 341.56 453.17 345.31 450.61 342.31C452.011 341.967 453.33 341.348 454.489 340.49C455.648 339.631 456.624 338.55 457.36 337.31C455.92 336.16 454.67 337.01 453.47 337.26C452.58 337.44 451.81 337.61 451.41 336.65C451.11 335.93 451.64 335.49 452.19 335.06C454.81 333.01 456.01 331.21 451.29 330.57C451.29 330.57 451.36 329.65 451.4 329.15C452.46 327.9 450.4 327.06 450.97 325.88C453.76 321.57 450.37 318.55 448.89 314.42C447.74 318.05 447.67 321.88 445.72 323.64C442.87 326.2 442.97 326.75 446.33 327.82C447.15 328.09 448.33 328.41 448.4 329.7C447.25 331.93 444.93 329.75 443.51 331C443.97 333.54 446.39 334.16 448.06 335.52C446.06 337.99 442.39 335.52 440.39 338.27L446.97 342.08C445.17 345.83 440.63 344.03 437.81 346.91L444.97 350.91C443.02 352.91 440.65 353.08 438.09 352.91C437.01 352.84 435.5 351.91 434.98 354.15C434.54 356.09 435.98 356.71 436.9 357.15C439.42 358.4 441.41 360.98 445.48 359.9C441.25 364.95 436.48 363.56 431.82 363.39C432.45 368.61 438.12 369.1 440.26 372.82C441.217 373.866 442.364 374.721 443.64 375.34C442.583 376.847 441.01 377.914 439.22 378.34C437.83 378.76 436.05 379.24 434.88 378.71C431.7 377.28 429.16 378.63 426.28 379.43C429.96 385.31 436.28 387.27 441.47 391.08C437.24 393.76 433.67 396.42 429.09 393.44C428.374 393.001 427.515 392.859 426.696 393.046C425.877 393.233 425.164 393.733 424.71 394.44C423.56 396.44 426.19 396.88 427.24 397.96C428.68 403.09 433.02 403.96 438.12 404.43C434.44 408.16 430.4 407.31 427.12 406.72L427.49 406.31C426.781 405.811 425.909 405.6 425.05 405.72C426.8 404.48 427.19 402.47 425.98 398.95C424.98 399.1 423.85 399.34 422.76 399.47C421.97 398.39 421.04 397.37 421.49 396.03C420.55 396.862 419.834 397.918 419.41 399.1C419.148 398.951 418.925 398.742 418.76 398.49C417.55 396.68 420.62 394.55 421.9 392.61C422.05 392.38 421.99 392.01 422.04 391.61C420.85 390.32 418.04 392.39 417.62 389.84C417.2 387.29 420.62 387.25 421.08 384.92C415.73 385.5 417.46 380.08 414.85 377.53C414.05 380.07 413.85 383.84 412.54 384.29C407.96 385.84 410.17 387.7 412.1 388.87C416.38 391.47 413.43 392.33 411.25 393.42C409.25 394.42 408.55 395.92 410.95 396.63C414.3 397.63 412.2 398.47 411.68 400.12C410.77 403 407.59 401.76 406.09 404.05C407.65 404.78 409.46 405.05 410.34 406.17C411.22 407.29 413.67 407.3 413.14 409.17C412.61 411.04 410.57 410.96 408.93 411.08C408.29 411.08 407.63 410.9 406.99 410.94C405.81 411.01 403.71 409.44 403.75 411.69C403.75 413.1 402.56 415.93 405.84 416.37C408.207 416.671 410.437 417.65 412.26 419.19C409.73 424.07 404.56 423.85 399.47 425.19C403.62 428.19 406.36 431.7 411.09 431.99C411.78 431.99 412.49 432.75 413.09 433.29C413.22 433.41 412.85 434.42 412.68 434.46C410.111 434.48 407.57 433.93 405.24 432.85C405.491 434.119 406.055 435.304 406.88 436.3C405.886 436.798 404.839 437.183 403.76 437.45C400.92 438.06 396.13 436.15 395.52 438.67C394.91 441.19 399.99 442.43 402.07 444.67C402.204 444.815 402.355 444.942 402.52 445.05C403.7 446.16 404.83 447.3 406 448.34C405.29 450.51 402.21 449.16 400.76 450.24C400.126 450.672 399.364 450.873 398.6 450.81C398.984 450.514 399.396 450.256 399.83 450.04C400.61 449.65 401.39 449.16 401.23 448.24C401 446.85 399.75 447.16 398.83 447.24C395.7 447.32 392.58 447.45 390.55 444.6C391.26 442.03 394.66 444.26 395.31 441.39C393.47 440.9 391.47 440.76 389.85 439.45L395.5 434.8C393.94 433.59 392.67 434.3 391.5 434.61C388.06 435.51 388.5 431.36 388.62 431.29C391.39 428.64 391.27 426.51 387.9 424.53C387.49 424.29 387.68 423.17 387.29 422.71C386.37 421.62 386.02 423.01 385.41 423.3C384.3 425.13 384.11 427.72 381.35 428.16C381.19 428.77 381.21 429.75 380.84 429.93C377.02 431.81 378.54 432.86 381.33 433.93C381.9 434.15 382.26 435.03 382.82 435.15C384.01 435.39 384.58 435.86 384.3 437.15C383.98 438.62 382.83 438.15 381.94 438.15C380.39 438.03 378.84 437.72 377.42 438.89C378.36 440.44 380.19 440.61 380.67 442.27C381.03 443.52 384.56 442.76 382.89 445.44C381.66 447.44 379.89 446.96 378.08 446.25C376.08 445.45 374.08 444.09 370.86 445.36C375.94 447.96 377.27 453.81 382.75 454.89C385.11 455.36 383.4 456.83 383.11 457.34C382.404 458.473 381.419 459.407 380.25 460.051C379.08 460.695 377.765 461.029 376.43 461.02C370.21 461.32 363.97 461.68 357.77 460.63C354.979 460.225 352.255 459.448 349.67 458.32C348.15 457.62 348.22 456.67 348.61 455.54C348.955 454.878 349.393 454.269 349.91 453.73C351.67 455.82 354.28 454.66 356.1 455.28C359.39 456.41 360.61 455.04 362.1 452.98C362.62 452.23 362.44 450.75 363.71 450.81C369.5 451.07 367.37 446.08 369.13 443.55C360.13 447.95 352.66 444.22 345.13 440.44C344.56 440.16 343.27 440.24 344.13 438.92C344.65 438.08 345.02 437.27 346.3 437.2C348.08 437.09 349.71 437.8 351.63 437.37C355.04 436.61 352.35 435.37 352.11 434.37C358.73 435.78 361.51 433.91 363.76 426.59C349.12 428.31 347.03 427.9 343.76 422.59C345.34 422.12 346.97 424.42 348.37 422.74C351.11 419.45 355.54 418.74 358.37 414.93C359.009 414.155 359.454 413.24 359.669 412.259C359.885 411.279 359.865 410.261 359.61 409.29C358.7 406.74 356.49 409.05 355 409.43C351.11 410.43 347.46 411.82 343.53 409.3C341.73 408.14 341.4 406.8 342.1 405.24C342.8 403.68 344.1 403.24 345.61 404.51C346.89 405.64 348.38 404.84 349.77 404.99C348.53 400.22 354.27 403.11 355.01 400.29C355.15 399.78 357.58 400.19 357.01 398.47C356.63 397.24 355.29 397.06 354.01 397.4C349.69 398.57 346.2 396.73 343.01 394.2C341.82 393.26 339.89 392.25 340.39 390.48C340.83 388.95 342.71 388.31 344.24 387.77C345.852 387.139 347.529 386.69 349.24 386.43C351.37 386.19 351.74 384.73 352.49 382.33C348.23 384.43 345.75 381.17 342.59 380.14C340.86 379.58 338.84 378.71 339.16 376.48C339.41 374.8 341.21 373.66 342.7 373.36C345.82 372.75 346.62 370.78 347.47 367.63C344.64 368.26 342.47 368.76 340.4 368.14C339.51 367.88 338.4 367.58 338.19 366.47C337.98 365.36 339.05 365.23 339.76 364.91C342.19 363.82 343.34 361.51 345.85 359.29H336.85C342.65 354.2 335.69 350.94 336.85 345.75C332.85 349.7 337.39 356.3 330.9 357.38C331.36 359.32 333.9 358.47 334.04 360.8C331.54 360.68 329.97 362.17 328.25 363.68C330.25 365.42 333.31 365.14 334.05 367.99C331.61 370.27 328.28 369.66 324.3 370.52C327.201 371.689 329.887 373.331 332.25 375.38C333.12 375.84 334.18 376.07 334.41 377.27C332.58 381.27 328.62 380.37 325.41 381.22C324.41 381.49 322.55 380.84 322.5 382.32C322.41 384.98 324.09 387.23 325.27 389.53C325.87 390.72 327.27 390.19 327.84 389.63C330.69 387.03 330.43 393.07 332.84 391.35C332.91 393.35 331.43 394.24 330.09 395.04C327.42 396.64 324.43 396.55 321.39 396.46C317.87 396.35 314.86 400.02 316.78 401.24C319.55 402.99 321.78 406.73 325.47 405.96C327.81 405.47 329.53 406.44 331.73 406.1C326.62 414.59 318.94 409.25 312.92 410.25C311.46 415.06 319.02 414.82 317.62 419.54C317.91 419.54 318.26 419.74 318.5 419.64C323.22 417.7 326.7 422.69 331.32 421.64C325.87 427.85 318.61 425.64 311.93 426.19C312.52 430.93 314.12 434.19 319.45 434.04C319.933 434.029 320.412 434.121 320.857 434.309C321.301 434.497 321.701 434.777 322.03 435.13C323.59 437.38 325.11 438.61 327.97 437C328.267 436.859 328.59 436.779 328.919 436.767C329.248 436.755 329.577 436.81 329.884 436.928C330.191 437.047 330.47 437.228 330.705 437.458C330.94 437.689 331.125 437.965 331.25 438.27C331.72 439.64 330.12 440.14 329.25 440.7C325.581 442.999 321.429 444.416 317.12 444.84C312.88 445.25 308.12 446.65 304.28 443.1C301.28 441.61 299.5 442.7 298.79 445.78C298.14 448.6 300.21 452.64 302.88 452.72C307.73 452.85 312.13 455.37 317.07 454.83C319.93 454.51 322.51 456.06 325.69 456.3C323.2 459.1 320.4 459.42 317.64 460.08C312.71 461.24 307.32 460.41 302.84 463.46C303.13 468.08 307.22 468.66 310.17 470.88C304.17 467.57 297.76 467.73 291.28 468.71C293.233 467.645 295.348 466.908 297.54 466.53C300.06 466.28 302 465.33 302.9 462.82C303.97 462.05 305.41 461.93 306.3 460.82C307.19 459.71 308.23 458.28 307.56 456.76C306.72 454.89 305.02 455.66 303.63 456.05C301.55 456.64 299.42 457.45 297.31 457.36C291.82 457.14 285.71 458.02 282.88 451.28C284.125 451.749 285.462 451.92 286.785 451.781C288.107 451.642 289.38 451.197 290.5 450.48C293.65 448.37 298.26 447.28 298.26 442.14C292.64 444.14 287.75 442.77 283.14 438.93C286.35 435.88 291.67 435.03 292.29 429.06C287.2 430.76 283.18 430.5 279.29 426.06C283.96 427.48 284.73 423.41 287.23 421.97C287.99 420.68 287.96 419.83 286.12 419.97C283.31 419.81 280.05 421.17 277.88 417.22C282.2 416.22 283.68 412.39 286.73 409.34C282.92 409.06 279.02 412.34 276.38 407.49C280.27 407.17 282.7 405.28 283.49 401.55C280.04 401.5 280.06 401.5 279.94 398.45C279.94 398.2 279.58 397.9 279.32 397.73C276.97 396.24 277.39 393.02 274.85 391.18C277 394.99 268.65 397.11 273.85 401.28C272.26 402.9 269.63 401.28 267.79 403.23C270.04 405.1 270.73 408.4 274.38 408.5C271.38 412.93 266.68 410.59 263.21 412.31C265.65 415.42 269.21 416.79 272.27 418.95C269.07 422.15 264.68 420.78 260.72 423.21C265.64 424.44 267.97 429.21 274.19 428.21C268.89 431.52 263.6 430.21 258.93 432.52C263.52 435.36 266.76 438.98 272.2 440.08C266.13 444.98 259.81 441.68 253.61 442.79C258.3 446.56 262.79 449.27 266.38 453.09C267.3 453.62 269.1 453.74 267.49 455.46C267.42 455.93 267.49 456.61 267.25 456.83C262.35 460.74 256.5 457.94 251.16 458.97C250.16 459.16 249.98 456.97 250.67 456.68C253.16 455.78 252.37 452.25 255.15 451.59C255.93 451.4 257.37 450.18 256.53 448.88C255.69 447.58 254.53 448.7 253.53 449.2C247.53 452.45 241.69 451.76 236.19 448.09C234.38 446.89 232.57 446.03 236.45 443.9C242.38 440.65 247.3 435.65 252.08 430.2C243.74 432.05 235.81 432.04 228.46 426.83C231.25 425.56 234.24 422.94 236.87 423.26C242.99 424.02 240.72 418.77 242.65 416.69C243.03 416.27 243.88 416.32 244.49 416.09C246.05 415.51 247.56 414.85 248.4 413.27C248.76 412.12 248.22 411.85 247.21 412.06C241.73 415.39 232.15 415.06 228.57 411.25C230.57 410.87 232.57 411.63 234.33 410.13C237.93 407.01 239.45 401.8 244.54 400.13C245.54 399.82 245.71 398.35 245.18 397.52C244.43 396.35 243.49 397.36 242.63 397.73C240.63 398.61 238.63 399.49 236.41 399.17C235.12 400.03 233.67 399.46 232.3 399.65C231.85 399.72 231.72 399.52 231.8 399.53C232.024 399.579 232.258 399.557 232.469 399.467C232.681 399.378 232.859 399.225 232.98 399.03C234.98 397.69 233.49 394.03 234.87 393.82C239.16 393.1 239.74 389.04 243.36 386.92C240.61 386.28 239.31 387.59 237.79 387.83C235.04 388.27 232.23 389.19 229.53 387.66C229.088 387.472 228.699 387.177 228.399 386.802C228.098 386.427 227.896 385.983 227.81 385.51C231.27 385.23 230.71 380.85 233.75 379.84C234.976 379.352 236.085 378.61 237.005 377.664C237.925 376.718 238.636 375.589 239.09 374.35C235.25 376.74 231.36 376.54 227.21 375.75C228.7 370.93 236.8 375.15 236.21 368.34C234.41 367.7 233.08 369.42 231.4 369.22C231.081 369.471 230.69 369.615 230.285 369.631C229.879 369.647 229.478 369.535 229.14 369.31C228.5 368.88 229.14 368.56 229.44 368.26C229.89 367.26 232.27 366.4 231.34 365.94C227.79 364.19 225.91 362.13 227.34 358.02C227.47 357.66 226.66 356.96 226.25 356.45C226.065 356.279 225.916 356.074 225.812 355.845C225.707 355.616 225.65 355.368 225.642 355.117C225.635 354.865 225.678 354.615 225.768 354.38C225.859 354.145 225.996 353.931 226.17 353.75C229.6 350.36 226 348.11 225.31 344.99C223.47 346.84 225.25 349.4 223 350.57C221.91 351.13 225.92 352.29 222.76 353.1C220.66 353.63 219.76 354.89 222.24 356.62C223.95 357.81 225.6 359.22 221.76 360.25C220.937 360.613 220.211 361.164 219.639 361.859C219.068 362.553 218.667 363.372 218.47 364.25C218.2 365.95 220.96 365.15 221.91 366.31C222.21 366.68 222.54 367.02 222.99 367.53C220.21 368.92 217.72 370.62 213.81 370.25C216.9 372.13 219.15 373.35 220.97 375.94C223.23 379.16 221.32 378.59 219.53 379C216.25 379.73 213.06 378.47 209.03 378.33C212.63 383.15 218.5 383.27 221.88 387.25C218.656 388.457 215.104 388.457 211.88 387.25C210.21 386.59 208.66 388.25 209.54 388.75C212.67 390.64 212.61 395.75 216.92 395.97C218.8 396.06 218.76 397.46 218.78 398.24C218.78 399.71 217.34 399.08 216.54 399.09C212.86 399.18 209.17 399.09 205.15 399.09C206.78 402.29 211.21 403.29 210.68 407.47C210.68 407.6 211.68 408.12 211.91 407.97C215.99 405.64 217.47 410.7 220.59 410.97C221.59 411.83 220.85 412.43 220.25 413.04C213.46 417.26 206.44 414.38 199.46 412.76L198.38 415.18C206.88 417.01 210.38 425.47 219 428.09C214.91 429.63 211.28 433.14 207.47 431.37C204.32 429.91 200.98 429.31 197.88 427.93C197.1 427.58 196 426.79 195.37 428.22C195.218 428.613 195.21 429.047 195.35 429.445C195.489 429.843 195.766 430.178 196.13 430.39C200.75 434.08 204.75 438.6 210.34 440.99C211.05 441.16 211.67 440.73 212.34 440.7C211.71 441.2 210.92 441.44 210.34 441.97C209.21 442.91 206.79 441.36 206.57 443.23C206.35 445.1 208.3 445.17 209.89 445.09C211.48 445.01 210.89 446.98 212.04 447.75C212.92 448.35 211.22 449.21 210.52 449.7C205.75 453.02 199.99 451.9 194.61 453.57C194.55 451.67 197.15 450.97 195.99 449.41C194.83 447.85 192.99 448.41 191.35 448.55C188.875 448.846 186.383 448.982 183.89 448.96C182.642 448.851 181.46 448.351 180.514 447.53C179.567 446.709 178.904 445.61 178.62 444.39C179.662 443.888 180.554 443.123 181.21 442.17C181.63 442.196 182.05 442.196 182.47 442.17C183.24 442.1 183.47 441.17 183.9 441.05C187.63 439.86 188.24 435.55 191.58 433.64C193.35 432.64 190.52 432.54 189.58 432.22C187.26 433.22 184.58 431.69 182.37 433.16C179.98 434.09 178.9 432.05 177.37 430.96C176.06 429.23 176 428.03 178.64 427.96C183.49 427.21 183.02 421.3 187.3 419.96C182.63 418.44 177.3 420.67 174.3 415.59C178.85 413.78 183.66 412.8 188.16 408.92C184.31 408.5 181.51 409.47 178.79 408.63C177.53 408.24 175.66 408.1 175.79 406.63C175.76 405.833 175.991 405.049 176.448 404.395C176.904 403.742 177.562 403.256 178.32 403.01C180.87 402.1 184.38 401.92 185.52 398.68C181.83 397.12 177.52 398.34 173.64 394.25C178.64 395.02 180.05 391.94 180.22 389.25C180.4 386.33 176.93 389.49 175.6 387.67C175.11 387 173.6 387.05 172.67 386.78C172.94 384.54 176.67 385.46 175.86 383.16C174.52 379.08 171.86 375.55 170.96 371.16C169.17 374.64 170.88 379.35 166.27 381.25L167.27 382.25C168.07 383.46 166.84 383.61 166.27 384.11C166.098 384.28 165.976 384.494 165.917 384.728C165.857 384.962 165.863 385.208 165.933 385.44C166.003 385.671 166.134 385.879 166.314 386.041C166.493 386.203 166.713 386.313 166.95 386.36C168.01 386.53 169.44 385.7 169.22 387.72C169.117 388.295 168.842 388.826 168.432 389.242C168.021 389.658 167.494 389.94 166.92 390.05C166.655 390.119 166.384 390.163 166.11 390.18C167.25 389.11 167.53 387.82 164.19 386.69C162.87 386.24 162.68 382.47 161.88 379.92C159.27 382.48 161 387.92 155.65 387.32C156.06 389.65 159.53 389.73 159.11 392.23C158.69 394.73 155.88 392.72 154.69 394.01C154.69 394.41 154.69 394.78 154.83 395.01C155.73 396.38 157.53 397.85 158.08 399.23C156.814 399.028 155.529 398.975 154.25 399.07C154.03 400.68 155.97 400.86 156.49 401.83C154.88 402.21 152.57 401.62 150.75 401.35C149.26 405.66 150.19 407.71 153.07 408.84C149.63 408.3 143.77 412.04 138.62 406.84C143.72 406.33 148.06 405.5 149.5 400.37C150.55 399.28 153.18 398.89 152.03 396.85C151.576 396.143 150.863 395.643 150.044 395.456C149.225 395.269 148.366 395.411 147.65 395.85C143.07 398.85 139.5 396.18 135.27 393.49C140.5 389.69 146.78 387.73 150.46 381.85C147.58 381.05 145.04 379.7 141.86 381.13C140.69 381.65 138.91 381.13 137.52 380.76C135.73 380.334 134.157 379.267 133.1 377.76C134.376 377.141 135.523 376.286 136.48 375.24C138.62 371.52 144.29 371.03 144.92 365.81C140.28 365.97 135.49 367.37 131.26 362.32C135.33 363.4 137.32 360.82 139.84 359.57C140.74 359.13 142.2 358.5 141.76 356.57C141.24 354.33 139.76 355.26 138.65 355.32C136.09 355.48 133.72 355.32 131.77 353.32L138.93 349.32C136.11 346.44 131.57 348.24 129.77 344.48L136.35 340.68C134.35 337.91 130.67 340.39 128.68 337.92C130.35 336.56 132.77 335.92 133.23 333.4C131.81 332.16 129.49 334.33 128.34 332.11C128.45 330.82 129.59 330.49 130.41 330.23C133.77 329.16 133.87 328.61 131.02 326.04C129.02 324.29 129.02 320.46 127.85 316.83C126.37 320.96 122.98 323.98 125.77 328.29C126.28 329.46 124.28 330.29 125.34 331.56C125.34 332.06 125.47 332.98 125.44 332.98C120.73 333.62 121.93 335.41 124.55 337.46C125.1 337.89 125.63 338.34 125.33 339.05C124.92 340.05 124.16 339.85 123.27 339.66C122.07 339.41 120.81 338.57 119.38 339.71C120.114 340.952 121.089 342.035 122.248 342.894C123.408 343.753 124.728 344.37 126.13 344.71C123.58 347.71 120.37 343.96 117.57 345.78C118.81 347.46 119.94 349.1 122.31 349.51C123.74 349.76 125.75 350.35 125.38 352.06C125.01 353.77 122.95 353.38 121.47 353.38H114.84C115.59 355.93 118.31 356.77 120.06 358.3C118.75 360.13 117.06 361.83 118.89 364.43C119.01 364.61 118.29 365.64 117.77 365.94C115.96 367 115.64 367.42 116.42 368.36C115.225 368.253 114.02 368.31 112.84 368.53C115.49 370.19 117.6 371.53 120.05 372.1L112.67 374.81L119.49 377.81C118.904 379.174 117.88 380.303 116.58 381.02C115.725 380.758 114.948 380.287 114.32 379.65C111.15 376.56 110.32 379.11 109.32 381.45C105.39 379.98 100.48 381.38 97.42 377.37C97.07 376.69 96.4201 376.37 95.8701 375.83C96.4401 375.55 97.0501 375.95 97.6201 375.73C100.49 375.24 104.7 376.1 105.33 372.64C105.81 370.01 101.06 371.03 99.51 368.85C98.83 367.9 96.77 368.55 96.4 366.26C99.52 366.8 101.31 364.39 103.97 363.26C102.97 360.91 101.45 360.43 99.23 360.89C97.41 361.27 95.76 360.48 93.16 358.75C96.92 358.65 97.94 355.75 101.27 355.62C99.43 353.39 96.8801 354.62 95.6801 352.94C93.5401 349.94 97.3301 350.16 97.6801 349.29C95.0001 343.99 96.6801 338.13 93.6801 333.23C94.7601 337.5 88.38 339.75 91.27 344.85C92.27 346.53 88.76 347.6 87.09 348.7C87.4988 349.542 88.1514 350.24 88.963 350.706C89.7745 351.171 90.7072 351.382 91.64 351.31C89.4 354.6 86.84 352.11 84.64 352.46C85.06 356.03 88.99 356.06 90.64 358.41C88.17 360.94 85.45 360.19 82.16 359.01C83.49 362.19 85.6 362.86 87.78 363.33C88.91 363.57 89.88 363.6 90.09 365.15C90.3 366.7 89.2 367.32 88.3 367.8C86.19 368.91 83.85 368.63 81.56 368.36C81.24 366.61 80.08 366.05 78.41 366.2C74.96 366.51 72.1 364.83 68.33 363.38C72.51 361.31 76.7201 360.52 79.6201 356.48C75.2701 355.48 69.1201 360.3 67.4901 352.87C70.7301 352.66 73.11 349.76 77.05 349.12C74.66 347.24 72.56 347.49 70.5 347.43C69.29 347.43 67.57 347.79 67.31 345.91C67.05 344.03 69.31 344.72 69.52 344.24C70.36 342.32 74.94 341.48 71.52 338.24C70.52 338.71 69.36 339.49 69.52 337.34C73.44 335.05 70.18 332.72 68.79 332.18C65.01 330.71 67.64 328.54 67.66 326.7C67.66 324.24 68.29 323.29 71.05 321.99C64.05 322.72 67.48 317.76 65.53 315.35C65.86 318.55 60.22 319.81 63.38 323.99C64.3 325.2 63.48 326.12 61.9 326.21C60.96 326.26 59.41 325.11 59.25 326.92C59.1929 327.286 59.2147 327.66 59.3138 328.017C59.413 328.373 59.5872 328.705 59.8249 328.989C60.0625 329.273 60.3581 329.503 60.6918 329.664C61.0256 329.824 61.3898 329.912 61.76 329.92C62.3214 330.075 62.8546 330.318 63.34 330.64C62 333.12 60.44 330.69 58.86 331.64C59.35 332.77 58.76 334.92 60.86 335.02C63.11 335.13 63.41 336.54 63.23 337.89C62.96 339.97 61 339.38 59.61 339.45C58.22 339.52 56.74 338.75 55.06 339.53C56.32 342.3 58.99 343.4 61.42 344.99C58.68 346.55 56.16 342.99 53.58 345.37C55.05 347.75 57.49 348.86 59.82 350.21C60.82 350.77 62.57 351.52 62.03 352.91C61.43 354.47 60.65 356.48 58.32 356.39C55.99 356.3 53.38 356.08 50.57 355.9C52.57 361.19 56.63 363 62.01 363.61C58.01 369.11 53.01 366.49 47.54 366.07C50.16 368.42 51.23 370.66 54.32 371.41C56.21 371.87 59.79 373.48 58.73 376.29C57.9 378.52 54.73 377.87 52.48 377.14C50.5152 376.346 48.4088 375.961 46.29 376.01L53.4901 386.15C54.4901 386.7 55.24 385.84 56.13 385.81C55.28 386.27 54.31 386.47 53.46 386.95C50.46 388.35 48.3 386.06 45.77 385.36V391.51C46.3727 391.138 46.9506 390.727 47.5 390.28L48.02 390.59C50.26 391.99 52.6101 393.18 53.7401 396.27C51.0301 396.34 48.07 396.46 46.9 394.27C46.5938 393.678 46.2141 393.127 45.77 392.63V500.93V698.14L281.84 808.77L517.9 698.14V373.75C517.775 373.302 517.775 372.828 517.9 372.38V364.12C516.623 363.485 515.526 362.54 514.71 361.37C515.785 361.25 516.85 361.059 517.9 360.8V354.1C515.97 353.9 515.24 352.1 514.69 350.66C514.14 349.22 515.93 348.52 516.9 347.96L517.9 347.39V343.02C517.031 343.275 516.095 343.174 515.3 342.74C516.16 342.18 517.05 341.68 517.9 341.14V337.16ZM495.42 369.64C496.05 368.73 496.85 367.74 496.26 366.87C496.562 367.109 496.846 367.369 497.11 367.65C496.91 368.085 496.843 368.57 496.918 369.043C496.993 369.517 497.206 369.957 497.53 370.31C496.71 370.84 496.94 372.06 496.64 372.95C494.942 373.502 493.131 373.609 491.38 373.26C492.896 372.257 494.257 371.037 495.42 369.64ZM467.42 379.55C467.68 384.48 472.52 383.93 475.56 385.64C472.12 387.02 467.81 386.3 465.56 388.84C462.78 392 460.56 390.62 456.68 389.61C461.16 386.32 465.36 383.94 467.37 379.53L467.42 379.55ZM400.7 459.18C400.65 458.715 400.454 458.277 400.14 457.93H400.4H400.58C402.18 463.5 407.47 465.22 412.88 467.48C409.81 469.08 407.65 470.57 405.47 467.31C404.47 465.79 402.55 466 400.91 465.91C399.06 465.8 397.15 466.04 394.97 465.23C396.18 464.55 396.97 464.36 397.72 463.95C399.5 462.84 401.03 461.36 400.65 459.18H400.7ZM393.48 452.94C393.766 452.969 394.054 452.969 394.34 452.94C394.96 454.45 397.95 454.87 398.28 456.76C398.317 457.003 398.391 457.239 398.5 457.46C397.737 457.59 396.962 457.634 396.19 457.59C395.39 457.44 394.57 457.35 393.77 457.16C392.21 457.23 390.39 457.16 390.34 455.23C390.24 453.58 392.27 452.78 393.43 452.94H393.48ZM162.5 393.22C162.94 393.22 163.42 393.16 163.5 393.37C164.5 395.98 167.33 395.37 168.85 396.37C168.374 397.061 167.793 397.675 167.13 398.19C167.63 397.44 166.86 396.48 165.48 395.79C164.1 395.1 162.15 394.38 162.5 393.22ZM167.84 419.53C166.96 420.165 166.01 420.698 165.01 421.12C165.879 420.467 166.83 419.932 167.84 419.53ZM164.84 399.35C165.138 399.218 165.446 399.107 165.76 399.02C165.461 399.137 165.153 399.23 164.84 399.3V399.35ZM109.34 381.91C110.77 385.03 113.34 387.14 116.25 389.27C113.86 389.93 111.13 389.27 108.6 389.63C106.37 388.91 103.6 388.96 101.2 388C104.25 386.25 109.1 386.8 109.36 381.86L109.34 381.91ZM80.45 369.23C79.86 370.11 80.66 371.09 81.29 372.01C82.4408 373.404 83.7882 374.624 85.29 375.63C81.5 376.51 78.16 374.38 75.29 374.08C77.4 373.53 78.51 370.71 80.47 369.18L80.45 369.23Z" fill="#3A732F"/>
<path id="Vector_6" d="M281.84 808.77L304.22 798.28L269.98 188.41C269.843 185.948 269.223 183.537 268.154 181.315C267.086 179.093 265.59 177.104 263.752 175.46C261.914 173.816 259.77 172.551 257.443 171.736C255.116 170.921 252.652 170.572 250.19 170.71L232.79 171.71C230.327 171.847 227.916 172.467 225.693 173.537C223.47 174.606 221.48 176.103 219.836 177.942C218.193 179.78 216.927 181.925 216.113 184.253C215.298 186.582 214.951 189.047 215.09 191.51L248.84 793.23L281.84 808.77Z" fill="#7A3626"/>
<path id="Vector_7" d="M443.32 306.94L509.09 230.27L421.34 180.23L421.28 179.87L55.33 243.35L77.44 370.78L442.88 307.39L443.39 307.3L443.32 306.94Z" fill="#EB792F"/>
<path id="Vector_8" d="M449.54 382.07L449.64 381.72L308.55 341.29L67.89 383.04L66.01 372.2L56.97 403.73L413.52 505.91L414.02 506.05L414.12 505.7L506.72 465.34L449.54 382.07Z" fill="#536EB3"/>
<path id="Vector_9" d="M421.48 518.7L421.38 519.05L420.88 518.91L169.1 446.75L81.81 464.98L81.89 465.34L35.86 544.2L108.17 591.22L108.25 591.58L108.75 591.48L471.82 515.68L468.2 498.34L421.48 518.7Z" fill="#CEC849"/>
</g>
<defs>
<radialGradient id="paint0_radial_5_121" cx="0" cy="0" r="1" gradientUnits="userSpaceOnUse" gradientTransform="translate(281.84 924.937) scale(260.97 28.7067)">
<stop stop-color="#10131C"/>
<stop offset="0.38" stop-color="#12141C" stop-opacity="0.86"/>
<stop offset="0.75" stop-color="#17191B" stop-opacity="0.44"/>
<stop offset="1" stop-color="#1D1D1B" stop-opacity="0"/>
</radialGradient>
<linearGradient id="paint1_linear_5_121" x1="284.94" y1="69.38" x2="278.81" y2="746.48" gradientUnits="userSpaceOnUse">
<stop stop-color="#007945"/>
<stop offset="0.29" stop-color="#278E4E"/>
<stop offset="1" stop-color="#81BE63"/>
</linearGradient>
<clipPath id="clip0_5_121">
<rect width="563.69" height="953.07" fill="white"/>
</clipPath>
</defs>
</svg>
