<svg width="564" height="954" viewBox="0 0 564 954" fill="none" xmlns="http://www.w3.org/2000/svg">
<g id="PlanetsMedal" clip-path="url(#clip0_5_131)">
<path id="Vector" opacity="0.55" d="M281.84 953.07C437.496 953.07 563.68 938.331 563.68 920.15C563.68 901.969 437.496 887.23 281.84 887.23C126.184 887.23 0 901.969 0 920.15C0 938.331 126.184 953.07 281.84 953.07Z" fill="url(#paint0_radial_5_131)"/>
<path id="Vector_2" d="M281.84 13.25L45.78 123.88V357.42V396.46V698.15L281.84 808.78L517.9 698.15V396.46V357.42V123.88L281.84 13.25Z" stroke="#627DBD" stroke-width="24" stroke-miterlimit="10"/>
<path id="Vector_3" d="M281.84 13.25L45.78 123.88V357.42V396.46V698.15L281.84 808.78L517.9 698.15V396.46V357.42V123.88L281.84 13.25Z" fill="url(#paint1_linear_5_131)"/>
<path id="Vector_4" d="M243.94 462.52C335.431 462.52 409.6 388.352 409.6 296.86C409.6 205.369 335.431 131.2 243.94 131.2C152.449 131.2 78.28 205.369 78.28 296.86C78.28 388.352 152.449 462.52 243.94 462.52Z" fill="#67B658"/>
<path id="Vector_5" d="M129.37 339.41L129.21 339.33C129.21 339.33 129.26 339.37 129.37 339.41Z" fill="#536EB3"/>
<path id="Vector_6" d="M152.32 297.9C157 300.9 159.69 303.33 160.12 302.8C160.55 302.27 159.25 300.42 156.95 298C155.406 298.074 153.859 298.041 152.32 297.9Z" fill="#536EB3"/>
<path id="Vector_7" d="M152.32 297.9C146.664 294.18 140.439 291.407 133.89 289.69C129.434 288.458 124.842 287.786 120.22 287.69C122.99 290.67 140.18 296.89 152.32 297.9Z" fill="#536EB3"/>
<path id="Vector_8" d="M401.94 247.75C368.01 255.49 318.38 244.53 318.4 243.81C318.4 243.33 340.69 243.65 340.88 241C341.09 238.09 314.31 237.78 309.97 225.08C307.91 219.02 312.7 215.32 309.97 211.08C305.68 204.33 288.56 205.24 276.25 210.14C267.66 213.56 263.69 218.09 251.9 220.44C248.518 221.172 245.059 221.488 241.6 221.38C237.84 221.18 226.89 220.75 222.84 214.75C219.84 210.28 222.62 205.59 223.77 197.9C226.69 178.39 214.21 172.54 215.34 154.81C215.71 149.13 218.77 143.04 224.73 133.1C189.994 137.152 157.431 152.091 131.704 175.78C105.977 199.468 88.4065 230.69 81.5081 264.975C74.6097 299.259 78.7376 334.847 93.3004 366.643C107.863 398.438 132.114 424.809 162.58 441.98C173.16 434.24 183.19 428.69 181.63 423.62C179.74 417.51 163.38 419.73 161.96 413.31C160.96 408.73 168.63 404.52 178.82 394.58C191.6 382.12 189.48 378.58 196.61 373.04C209.12 363.33 228.61 362.67 243.44 368.36C261.38 375.24 274 391.98 277.16 407.69C279.06 417.15 276.76 422.41 280.91 425.49C288.41 431.07 301.19 417.78 319.31 420.81C325.875 422.015 332.01 424.922 337.1 429.24C338.994 429.509 340.852 429.989 342.64 430.67C370.303 410.12 390.878 381.463 401.506 348.681C412.133 315.9 412.285 280.622 401.94 247.75ZM198.52 293.45C195.06 302.96 185.14 300.68 175.1 311.24C162.7 324.24 168.65 337.43 158.24 343.09C152.09 346.44 144.12 345.09 138.08 343.09C128.22 342.51 99.34 338.67 94.55 324.37C91.92 316.5 96.55 305.54 97.36 303.76C98.9 300.17 100.74 295.86 104.86 292.52C109.41 288.83 115.02 287.72 120.22 287.71C120.098 287.614 120 287.49 119.934 287.35C119.868 287.209 119.836 287.055 119.84 286.9C120.25 284.78 136.34 284.12 148.84 291.59C151.805 293.364 154.519 295.526 156.91 298.02C160.19 297.85 162.69 297.02 163.82 295.33C166.55 291.21 159.07 285.2 161.95 278.47C165.47 270.26 182.95 264.47 192.86 272.85C198.63 277.67 201.02 286.56 198.52 293.44V293.45Z" fill="#536EB3"/>
<path id="Vector_9" d="M424.21 550.83C447.953 550.83 467.2 531.583 467.2 507.84C467.2 484.097 447.953 464.85 424.21 464.85C400.467 464.85 381.22 484.097 381.22 507.84C381.22 531.583 400.467 550.83 424.21 550.83Z" fill="#594495"/>
<path id="Vector_10" d="M456.435 498.754C458.764 497.685 459.34 493.962 457.723 490.438C456.105 486.915 452.906 484.925 450.577 485.995C448.248 487.064 447.671 490.787 449.289 494.31C450.907 497.834 454.106 499.823 456.435 498.754Z" fill="#3D2877"/>
<path id="Vector_11" d="M390.553 529.993C391.718 529.459 391.35 526.169 389.733 522.645C388.115 519.122 385.86 516.699 384.695 517.234C383.531 517.768 383.898 521.058 385.516 524.581C387.133 528.105 389.389 530.528 390.553 529.993Z" fill="#3D2877"/>
<path id="Vector_12" d="M413.971 483.309C419.668 480.693 422.975 475.717 421.357 472.193C419.739 468.67 413.81 467.934 408.113 470.549C402.416 473.165 399.109 478.141 400.727 481.665C402.345 485.188 408.274 485.924 413.971 483.309Z" fill="#3D2877"/>
<path id="Vector_13" d="M446.025 533.372C452.759 526.386 452.836 515.534 446.196 509.132C439.556 502.731 428.713 503.205 421.979 510.192C415.244 517.178 415.167 528.03 421.808 534.431C428.448 540.832 439.29 540.358 446.025 533.372Z" fill="#3D2877"/>
<path id="Vector_14" d="M208.62 710.55C261.341 710.55 304.08 667.811 304.08 615.09C304.08 562.369 261.341 519.63 208.62 519.63C155.899 519.63 113.16 562.369 113.16 615.09C113.16 667.811 155.899 710.55 208.62 710.55Z" fill="#2C7561"/>
<path id="Vector_15" d="M208.61 519.62C193.114 519.627 177.852 523.404 164.142 530.626C150.432 537.849 138.685 548.299 129.916 561.074C121.146 573.85 115.617 588.568 113.806 603.958C111.995 619.348 113.956 634.947 119.52 649.41C130.527 662.616 144.351 673.19 159.977 680.357C175.604 687.523 192.637 691.1 209.826 690.824C227.015 690.549 243.925 686.429 259.314 678.766C274.703 671.103 288.182 660.092 298.76 646.54C303.769 632.15 305.262 616.771 303.116 601.686C300.97 586.601 295.247 572.248 286.423 559.826C277.6 547.404 265.933 537.273 252.397 530.279C238.86 523.284 223.847 519.63 208.61 519.62Z" fill="#236E56"/>
<path id="Vector_16" d="M115.23 595.18C131.98 613.46 166.28 625.99 205.88 625.99C249.15 625.99 286.1 610.99 300.72 589.99C295.085 569.343 282.676 551.187 265.485 538.438C248.293 525.689 227.317 519.085 205.923 519.687C184.529 520.289 163.957 528.062 147.51 541.758C131.064 555.454 119.695 574.278 115.23 595.21V595.18Z" fill="#48907C"/>
<path id="Vector_17" d="M208.61 519.62C193.479 519.715 178.575 523.305 165.06 530.11C161.374 532.01 157.813 534.144 154.4 536.5C152.965 537.878 152.113 539.753 152.02 541.74C152.02 551.74 177.3 559.93 208.5 559.93C239.7 559.93 264.98 551.75 264.98 541.75C264.916 540.647 264.626 539.568 264.129 538.581C263.632 537.594 262.938 536.719 262.09 536.01C259.138 534.006 256.073 532.173 252.91 530.52C239.192 523.49 224.024 519.758 208.61 519.62Z" fill="#699794"/>
<path id="Vector_18" d="M436.33 144.16C438.407 144.16 440.09 142.477 440.09 140.4C440.09 138.323 438.407 136.64 436.33 136.64C434.253 136.64 432.57 138.323 432.57 140.4C432.57 142.477 434.253 144.16 436.33 144.16Z" fill="#FFFDF1"/>
<path id="Vector_19" d="M351.05 633.51C353.127 633.51 354.81 631.827 354.81 629.75C354.81 627.673 353.127 625.99 351.05 625.99C348.973 625.99 347.29 627.673 347.29 629.75C347.29 631.827 348.973 633.51 351.05 633.51Z" fill="#FFFDF1"/>
<path id="Vector_20" d="M436.33 400.32C440.842 400.32 444.5 396.662 444.5 392.15C444.5 387.638 440.842 383.98 436.33 383.98C431.818 383.98 428.16 387.638 428.16 392.15C428.16 396.662 431.818 400.32 436.33 400.32Z" fill="#FFFDF1"/>
<path id="Vector_21" d="M194.8 88.55C199.312 88.55 202.97 84.8922 202.97 80.38C202.97 75.8678 199.312 72.21 194.8 72.21C190.288 72.21 186.63 75.8678 186.63 80.38C186.63 84.8922 190.288 88.55 194.8 88.55Z" fill="#FFFDF1"/>
<path id="Vector_22" d="M281.84 752.38C286.352 752.38 290.01 748.722 290.01 744.21C290.01 739.698 286.352 736.04 281.84 736.04C277.328 736.04 273.67 739.698 273.67 744.21C273.67 748.722 277.328 752.38 281.84 752.38Z" fill="#FFFDF1"/>
<path id="Vector_23" d="M264.98 494.13C266.67 494.13 268.04 492.76 268.04 491.07C268.04 489.38 266.67 488.01 264.98 488.01C263.29 488.01 261.92 489.38 261.92 491.07C261.92 492.76 263.29 494.13 264.98 494.13Z" fill="#FFFDF1"/>
<path id="Vector_24" d="M474.63 256.31C476.32 256.31 477.69 254.94 477.69 253.25C477.69 251.56 476.32 250.19 474.63 250.19C472.94 250.19 471.57 251.56 471.57 253.25C471.57 254.94 472.94 256.31 474.63 256.31Z" fill="#FFFDF1"/>
<path id="Vector_25" d="M102.88 525.75C104.57 525.75 105.94 524.38 105.94 522.69C105.94 521 104.57 519.63 102.88 519.63C101.19 519.63 99.82 521 99.82 522.69C99.82 524.38 101.19 525.75 102.88 525.75Z" fill="#FFFDF1"/>
<path id="Vector_26" d="M493.01 632.81C494.7 632.81 496.07 631.44 496.07 629.75C496.07 628.06 494.7 626.69 493.01 626.69C491.32 626.69 489.95 628.06 489.95 629.75C489.95 631.44 491.32 632.81 493.01 632.81Z" fill="#FFFDF1"/>
<path id="Vector_27" d="M78.29 160.31C79.98 160.31 81.35 158.94 81.35 157.25C81.35 155.56 79.98 154.19 78.29 154.19C76.6 154.19 75.23 155.56 75.23 157.25C75.23 158.94 76.6 160.31 78.29 160.31Z" fill="#FFFDF1"/>
<path id="Vector_28" d="M75.22 678.18C76.91 678.18 78.28 676.81 78.28 675.12C78.28 673.43 76.91 672.06 75.22 672.06C73.53 672.06 72.16 673.43 72.16 675.12C72.16 676.81 73.53 678.18 75.22 678.18Z" fill="#FFFDF1"/>
</g>
<defs>
<radialGradient id="paint0_radial_5_131" cx="0" cy="0" r="1" gradientUnits="userSpaceOnUse" gradientTransform="translate(281.84 924.763) scale(260.97 28.7067)">
<stop stop-color="#10131C"/>
<stop offset="0.38" stop-color="#12141C" stop-opacity="0.86"/>
<stop offset="0.75" stop-color="#17191B" stop-opacity="0.44"/>
<stop offset="1" stop-color="#1D1D1B" stop-opacity="0"/>
</radialGradient>
<linearGradient id="paint1_linear_5_131" x1="281.84" y1="15.29" x2="281.84" y2="826.21" gradientUnits="userSpaceOnUse">
<stop stop-color="#24235E"/>
<stop offset="1" stop-color="#233C81"/>
</linearGradient>
<clipPath id="clip0_5_131">
<rect width="563.69" height="953.07" fill="white"/>
</clipPath>
</defs>
</svg>
